<svg width="24" height="24" viewBox="0 0 24 24" fill="none" xmlns="http://www.w3.org/2000/svg">
<path d="M10.9099 19.5688C12.8312 19.5684 14.6973 18.9252 16.2108 17.7417L20.2041 21.7348C20.6268 22.1574 21.312 22.1574 21.7346 21.7348C22.1573 21.3121 22.1573 20.6268 21.7346 20.2041L17.7414 16.2111C18.9256 14.6975 19.5693 12.8312 19.5697 10.9094C19.5697 6.13482 15.6847 2.25 10.9099 2.25C6.13503 2.25 2.25 6.13482 2.25 10.9094C2.25 15.684 6.13503 19.5688 10.9099 19.5688ZM10.9099 4.41485C14.4918 4.41485 17.4048 7.32765 17.4048 10.9094C17.4048 14.4911 14.4918 17.4039 10.9099 17.4039C7.32793 17.4039 4.41496 14.4911 4.41496 10.9094C4.41496 7.32765 7.32793 4.41485 10.9099 4.41485Z" fill="#1199F0"/>
</svg>
