<svg width="24" height="24" viewBox="0 0 24 24" fill="none" xmlns="http://www.w3.org/2000/svg">
<path fill-rule="evenodd" clip-rule="evenodd" d="M2.25 7.3125C2.25 5.96984 2.78337 4.68217 3.73277 3.73277C4.68217 2.78337 5.96984 2.25 7.3125 2.25H17.4375C18.7802 2.25 20.0678 2.78337 21.0172 3.73277C21.9666 4.68217 22.5 5.96984 22.5 7.3125V17.4375C22.5 18.7802 21.9666 20.0678 21.0172 21.0172C20.0678 21.9666 18.7802 22.5 17.4375 22.5H7.3125C5.96984 22.5 4.68217 21.9666 3.73277 21.0172C2.78337 20.0678 2.25 18.7802 2.25 17.4375V7.3125ZM7.3125 4.275C6.50691 4.275 5.73431 4.59502 5.16466 5.16466C4.59502 5.73431 4.275 6.50691 4.275 7.3125V17.4375C4.275 18.2431 4.59502 19.0157 5.16466 19.5853C5.73431 20.155 6.50691 20.475 7.3125 20.475H17.4375C18.2431 20.475 19.0157 20.155 19.5853 19.5853C20.155 19.0157 20.475 18.2431 20.475 17.4375V7.3125C20.475 6.50691 20.155 5.73431 19.5853 5.16466C19.0157 4.59502 18.2431 4.275 17.4375 4.275H7.3125ZM12.375 7.81875C10.9089 7.81875 10.35 8.8839 10.35 9.3375C10.35 9.60603 10.2433 9.86356 10.0534 10.0534C9.86356 10.2433 9.60603 10.35 9.3375 10.35C9.06897 10.35 8.81144 10.2433 8.62155 10.0534C8.43167 9.86356 8.325 9.60603 8.325 9.3375C8.325 7.7661 9.7911 5.79375 12.375 5.79375C13.5455 5.79375 14.5721 6.08636 15.3204 6.74044C16.0848 7.4097 16.425 8.34221 16.425 9.3375C16.425 10.5404 16.1152 11.3909 15.532 12.0389C15.283 12.3069 15.0014 12.5427 14.6936 12.7405C14.5706 12.8216 14.4464 12.901 14.321 12.9784L14.3028 12.9896C14.1773 13.0686 14.0639 13.1415 13.9515 13.2154C13.5971 13.4543 13.4523 13.6325 13.3946 13.748C13.348 13.8371 13.3166 13.9555 13.3662 14.1914C13.3936 14.3216 13.3951 14.4559 13.3706 14.5866C13.3461 14.7174 13.2961 14.842 13.2234 14.9534C13.0766 15.1784 12.8465 15.3359 12.5836 15.3912C12.4534 15.4186 12.3191 15.4201 12.1884 15.3956C12.0576 15.3711 11.933 15.3211 11.8216 15.2484C11.5966 15.1016 11.4391 14.8715 11.3838 14.6086C11.2562 14.0011 11.2997 13.3966 11.5903 12.8276C11.8667 12.2859 12.3173 11.8738 12.8235 11.5346C12.9653 11.4395 13.104 11.3524 13.2275 11.2744L13.2366 11.2683C13.3602 11.1914 13.4675 11.1246 13.5687 11.0557C13.7763 10.918 13.9191 10.8026 14.0274 10.6831C14.2036 10.4877 14.4 10.1607 14.4 9.3375C14.4 8.81404 14.234 8.48093 13.9859 8.26425C13.7216 8.03239 13.2296 7.81875 12.375 7.81875ZM12.375 16.2033C12.242 16.2033 12.1104 16.2295 11.9875 16.2803C11.8647 16.3312 11.7531 16.4058 11.6591 16.4998C11.565 16.5938 11.4905 16.7055 11.4396 16.8283C11.3887 16.9511 11.3625 17.0828 11.3625 17.2158C11.3625 17.3487 11.3887 17.4804 11.4396 17.6032C11.4905 17.7261 11.565 17.8377 11.6591 17.9317C11.7531 18.0257 11.8647 18.1003 11.9875 18.1512C12.1104 18.2021 12.242 18.2283 12.375 18.2283C12.6435 18.2283 12.9011 18.1216 13.0909 17.9317C13.2808 17.7418 13.3875 17.4843 13.3875 17.2158C13.3875 16.9472 13.2808 16.6897 13.0909 16.4998C12.9011 16.3099 12.6435 16.2033 12.375 16.2033Z" fill="#1199F0"/>
</svg>
