<svg width="169" height="60" viewBox="0 0 169 60" fill="none" xmlns="http://www.w3.org/2000/svg">
<rect width="169" height="60" rx="30" fill="white"/>
<path d="M92.0793 32.3843L92.3522 34.9704H92.4361L92.73 32.3425L95.2905 24.2294H97.1795L99.6982 32.3843L99.992 34.9704H100.076L100.391 32.3425L102.175 24.2294H105.092L101.042 38.933H99.1105L96.487 30.82L96.1302 28.5884H96.0252L95.6684 30.8409L93.0658 38.933H91.0299L87 24.2294H90.1273L92.0793 32.3843ZM106.547 28.4007H109.276V38.8288H106.547V28.4007ZM106.148 25.46C106.148 25.0567 106.295 24.7161 106.589 24.438C106.897 24.146 107.317 24 107.848 24C108.38 24 108.807 24.146 109.129 24.438C109.464 24.7161 109.632 25.0567 109.632 25.46C109.632 25.8632 109.464 26.2038 109.129 26.4819C108.807 26.7461 108.38 26.8781 107.848 26.8781C107.317 26.8781 106.897 26.7461 106.589 26.4819C106.295 26.2038 106.148 25.8632 106.148 25.46ZM111.932 28.4007H113.926L114.24 29.652H114.324C114.688 29.1237 115.115 28.7343 115.605 28.4841C116.108 28.2339 116.717 28.1087 117.431 28.1087C118.747 28.1087 119.733 28.5258 120.39 29.3601C121.048 30.1804 121.377 31.5082 121.377 33.3436C121.377 34.2334 121.271 35.04 121.061 35.7629C120.852 36.4721 120.537 37.0768 120.117 37.5774C119.712 38.078 119.208 38.4603 118.606 38.7245C118.018 38.9886 117.34 39.1208 116.57 39.1208C116.137 39.1208 115.78 39.0861 115.5 39.0165C115.22 38.9609 114.94 38.8635 114.66 38.7245V43H111.932V28.4007ZM116.612 30.4029C116.08 30.4029 115.661 30.535 115.353 30.7991C115.059 31.0632 114.828 31.4596 114.66 31.9879V36.3261C114.856 36.4791 115.066 36.6041 115.29 36.7014C115.528 36.7849 115.836 36.8266 116.213 36.8266C116.997 36.8266 117.585 36.5554 117.976 36.0132C118.369 35.4571 118.564 34.5463 118.564 33.2811C118.564 32.3634 118.411 31.6542 118.102 31.1537C117.795 30.6531 117.298 30.4029 116.612 30.4029ZM126.079 35.3249C126.079 35.8116 126.142 36.1662 126.268 36.3886C126.394 36.611 126.597 36.7223 126.877 36.7223C127.044 36.7223 127.205 36.7084 127.36 36.6806C127.527 36.6527 127.729 36.5902 127.968 36.4929L128.262 38.6202C128.038 38.7315 127.695 38.8426 127.234 38.9539C126.771 39.0652 126.296 39.1208 125.806 39.1208C125.009 39.1208 124.4 38.94 123.98 38.5785C123.56 38.2031 123.351 37.5913 123.351 36.7432V24.2294H126.079V35.3249ZM129.374 29.0055C129.932 28.7552 130.598 28.5606 131.368 28.4215C132.137 28.2685 132.942 28.1922 133.781 28.1922C134.508 28.1922 135.117 28.2825 135.607 28.4632C136.097 28.6301 136.481 28.8734 136.761 29.1932C137.055 29.5131 137.257 29.8953 137.37 30.3403C137.496 30.7853 137.559 31.2858 137.559 31.842C137.559 32.4537 137.538 33.0725 137.496 33.6982C137.454 34.3099 137.426 34.9148 137.412 35.5127C137.412 36.1105 137.433 36.6945 137.475 37.2646C137.516 37.8207 137.622 38.3491 137.789 38.8496H135.565L135.124 37.4106H135.02C134.739 37.8416 134.347 38.217 133.844 38.5368C133.354 38.8426 132.718 38.9956 131.933 38.9956C131.444 38.9956 131.003 38.9261 130.612 38.7871C130.22 38.6341 129.884 38.4255 129.604 38.1614C129.324 37.8833 129.107 37.5635 128.954 37.202C128.799 36.8266 128.723 36.4095 128.723 35.9507C128.723 35.3111 128.862 34.7757 129.142 34.3447C129.437 33.8997 129.849 33.5452 130.381 33.2811C130.926 33.0029 131.57 32.8153 132.312 32.7179C133.067 32.6066 133.907 32.5719 134.83 32.6136C134.928 31.835 134.872 31.2788 134.663 30.9452C134.453 30.5975 133.984 30.4238 133.256 30.4238C132.71 30.4238 132.131 30.4793 131.515 30.5905C130.912 30.7018 130.415 30.8479 130.024 31.0285L129.374 29.0055ZM132.836 36.764C133.382 36.764 133.815 36.6459 134.137 36.4095C134.46 36.1592 134.697 35.8951 134.851 35.6169V34.2612C134.417 34.2196 133.998 34.2126 133.592 34.2404C133.2 34.2682 132.85 34.3308 132.543 34.4281C132.235 34.5254 131.99 34.6646 131.808 34.8452C131.626 35.026 131.535 35.2554 131.535 35.5335C131.535 35.9228 131.648 36.2287 131.871 36.4512C132.109 36.6597 132.43 36.764 132.836 36.764ZM146.271 38.8288V32.9056C146.271 32.0575 146.145 31.4457 145.894 31.0702C145.655 30.6948 145.242 30.5072 144.655 30.5072C144.136 30.5072 143.696 30.6601 143.333 30.966C142.982 31.258 142.731 31.6264 142.577 32.0714V38.8288H139.849V28.4007H142.01L142.326 29.7772H142.409C142.731 29.3322 143.158 28.9429 143.69 28.6093C144.22 28.2755 144.907 28.1087 145.747 28.1087C146.264 28.1087 146.726 28.1783 147.132 28.3172C147.537 28.4562 147.88 28.6857 148.16 29.0055C148.439 29.3253 148.649 29.7633 148.79 30.3194C148.93 30.8617 149 31.5361 149 32.3425V38.8288H146.271Z" fill="#1199F0"/>
<path d="M42 33.6423L47.1036 28.6292L53.6423 34.9739L73.8966 15L79 20.0131L53.6423 45L42 33.6423Z" fill="#E1AD27"/>
<path d="M16 32.6423L21.1035 27.6292L27.6423 33.9739L47.8966 14L53 19.0131L27.6423 44L16 32.6423Z" fill="#1199F0"/>
</svg>
